<svg xmlns="http://www.w3.org/2000/svg" width="380" height="144" viewBox="0 0 380 144">
  <title>Gpix wordmark</title>
  <desc>Custom outlined Gpix lettering. No external font is required.</desc>
  <path fill="#121C18" d="M107 31 L85 50 C78 42 68 38 55 38 C36 38 25 50 25 68 C25 86 37 98 55 98 C69 98 79 91 83 81 H59 V59 H111 V76 C111 105 88 123 56 123 C22 123 0 101 0 69 C0 36 24 12 57 12 C78 12 96 19 107 31 Z"/>
  <path fill="#121C18" fill-rule="evenodd" d="M125 42 H149 V49 C156 42 163 39 174 39 C198 39 215 55 215 78 C215 102 198 119 174 119 C164 119 157 116 150 109 V144 H125 Z M150 79 C150 91 158 99 170 99 C182 99 190 91 190 79 C190 67 182 59 170 59 C158 59 150 67 150 79 Z"/>
  <path fill="#121C18" d="M234 10 H250 Q254 10 254 14 V29 Q254 33 250 33 H234 Q230 33 230 29 V14 Q230 10 234 10 Z M230 43 H254 V118 H230 Z"/>
  <path fill="#121C18" d="M270 42 H299 L317 64 L335 42 H365 L333 79 L368 118 H337 L317 94 L297 118 H266 L301 79 Z"/>
</svg>
